<svg xmlns="http://www.w3.org/2000/svg" width="22.656" height="28.032">
    <path fill-rule="evenodd" fill="#FFF" d="M14.338 11.57c-.022-2.519 2.044-3.744 2.138-3.801-1.17-1.721-2.983-1.957-3.62-1.975-1.523-.162-3 .919-3.776.919-.791 0-1.986-.904-3.274-.877-1.657.026-3.207.994-4.057 2.497-1.754 3.066-.446 7.571 1.235 10.049.841 1.214 1.824 2.569 3.11 2.521 1.258-.052 1.728-.809 3.246-.809 1.504 0 1.946.809 3.257.779 1.35-.022 2.201-1.219 3.012-2.444.972-1.39 1.362-2.76 1.377-2.831-.031-.011-2.622-1.009-2.648-4.028zm-2.477-7.407c.677-.854 1.14-2.016 1.011-3.195-.979.044-2.204.684-2.909 1.519-.625.736-1.182 1.943-1.038 3.078 1.1.083 2.23-.561 2.936-1.402z"/>
</svg>
